<svg xmlns="http://www.w3.org/2000/svg" viewBox="0 0 1200 630" role="img" aria-label="StreamMonitor infrastructure dashboard preview">
  <defs>
    <linearGradient id="bg" x1="0" x2="1" y1="0" y2="1">
      <stop offset="0" stop-color="#121117"/>
      <stop offset="0.55" stop-color="#191725"/>
      <stop offset="1" stop-color="#101513"/>
    </linearGradient>
    <linearGradient id="accent" x1="0" x2="1">
      <stop offset="0" stop-color="#c7b7ff"/>
      <stop offset="0.5" stop-color="#9ee6c8"/>
      <stop offset="1" stop-color="#ffd7a8"/>
    </linearGradient>
  </defs>
  <rect width="1200" height="630" fill="url(#bg)"/>
  <rect x="72" y="72" width="1056" height="486" rx="32" fill="#181820" stroke="#373342" stroke-width="2"/>
  <rect x="112" y="112" width="196" height="72" rx="18" fill="#22202c"/>
  <circle cx="148" cy="148" r="18" fill="#c7b7ff"/>
  <path d="M174 158c15 14 33 21 54 21s39-7 54-21" fill="none" stroke="#9ee6c8" stroke-width="10" stroke-linecap="round"/>
  <text x="344" y="151" fill="#f7f4ff" font-family="Inter, Arial, sans-serif" font-size="54" font-weight="800">StreamMonitor</text>
  <text x="344" y="202" fill="#b8b4c6" font-family="Inter, Arial, sans-serif" font-size="27" font-weight="500">Infrastructure dashboard for streaming stacks</text>
  <rect x="112" y="256" width="276" height="178" rx="22" fill="#211f2a" stroke="#393545"/>
  <rect x="428" y="256" width="276" height="178" rx="22" fill="#1f2523" stroke="#34443e"/>
  <rect x="744" y="256" width="276" height="178" rx="22" fill="#28231f" stroke="#473d34"/>
  <text x="140" y="310" fill="#c7b7ff" font-family="Inter, Arial, sans-serif" font-size="28" font-weight="800">Services</text>
  <text x="456" y="310" fill="#9ee6c8" font-family="Inter, Arial, sans-serif" font-size="28" font-weight="800">System</text>
  <text x="772" y="310" fill="#ffd7a8" font-family="Inter, Arial, sans-serif" font-size="28" font-weight="800">Streams</text>
  <path d="M140 366h76l28-44 35 72 27-38h54" fill="none" stroke="#c7b7ff" stroke-width="9" stroke-linecap="round" stroke-linejoin="round"/>
  <path d="M456 382c24-48 57-72 98-72 46 0 83 29 111 86" fill="none" stroke="#9ee6c8" stroke-width="9" stroke-linecap="round"/>
  <path d="M772 394h56l26-58 40 84 31-46h67" fill="none" stroke="#ffd7a8" stroke-width="9" stroke-linecap="round" stroke-linejoin="round"/>
  <rect x="112" y="478" width="908" height="18" rx="9" fill="#24222d"/>
  <rect x="112" y="478" width="624" height="18" rx="9" fill="url(#accent)"/>
  <text x="112" y="530" fill="#b8b4c6" font-family="Inter, Arial, sans-serif" font-size="24">Real-time health, GPU, CPU, memory, storage, and process visibility.</text>
</svg>
